<svg width="0" height="0" class="hidden">
  <symbol fill="FFFFFF" xmlns="http://www.w3.org/2000/svg" viewBox="0 0 51 27" id="arrow-down">
    <path d="M50.0244 2.45042C50.0251 2.89924 49.8401 3.32996 49.5114 3.64696L26.7402 25.6529C26.4118 25.9702 25.9669 26.1487 25.5024 26.1487C25.0379 26.1487 24.5923 25.9702 24.2642 25.6529L1.49303 3.64696C0.820868 2.98452 0.826266 1.92163 1.50527 1.26547C2.18426 0.60964 3.2834 0.604077 3.96957 1.25365L25.5012 22.0616L47.0337 1.25275C47.5345 0.76879 48.288 0.624054 48.9421 0.886038C49.5967 1.14802 50.0236 1.76523 50.0236 2.44962L50.0244 2.45042Z" fill="white"></path>
  </symbol>
  <symbol fill="none" xmlns="http://www.w3.org/2000/svg" viewBox="0 0 61 53" id="logo-wallet">
    <path d="M48.7328 8.90677C50.2312 8.90677 51.5877 8.89357 52.9442 8.90677C56.3954 8.94857 58.8558 10.6801 59.6338 13.8086C59.9286 14.9901 59.8998 16.2662 59.8953 17.4983C59.8953 18.1979 59.4631 18.8183 58.6629 18.7567C57.8628 18.6951 57.8362 17.9867 57.8073 17.3399C57.7564 16.1782 57.794 14.9901 57.5591 13.8593C57.2355 12.3016 55.8745 11.3159 54.2697 11.3159C38.1273 11.3071 21.9841 11.3071 5.84021 11.3159C4.92793 11.3217 4.05488 11.6849 3.41103 12.3264C2.76718 12.968 2.40465 13.836 2.40234 14.7415C2.39051 25.4092 2.39051 36.0791 2.40234 46.7511C2.40234 48.7313 3.92954 50.2097 6.00202 50.2538C7.25659 50.2802 8.51338 50.2538 9.77016 50.2538H53.6602C56.3533 50.2538 57.8206 48.8347 57.8716 46.1813C57.8916 45.2661 57.8716 44.3376 57.9824 43.4466C58.0778 42.9845 58.3282 42.2167 59.0331 42.2167C59.738 42.2167 60.117 42.9757 60.1525 43.396C60.3741 46.0537 60.3121 48.6895 58.131 50.7026C56.9229 51.8445 55.3128 52.4722 53.6446 52.4517C38.2019 52.4517 22.7592 52.3857 7.31865 52.4979C3.44633 52.5309 -0.0159257 50.0689 0.0439212 45.3057C0.119284 39.2575 0.0616537 33.205 0.0616537 27.1568C0.0616537 23.6718 0.179131 20.1846 0.0306219 16.7062C-0.146702 12.5744 1.79278 9.83522 6.53843 8.86276C15.4024 7.04326 24.2155 4.99054 33.0462 3.03243C36.7168 2.21838 40.3808 1.38233 44.0536 0.581487C46.2879 0.0908588 48.6663 1.93237 48.7239 4.2073C48.7638 5.70778 48.7328 7.21047 48.7328 8.90677ZM18.6142 8.42274L18.694 8.81216H46.729C46.729 7.33148 46.7401 5.90799 46.729 4.48451C46.7135 3.12043 45.9089 2.5154 44.559 2.80362C36.7168 4.46984 28.8747 6.13827 21.0325 7.8089C20.2212 7.98271 19.4188 8.20273 18.6142 8.42274Z" fill="white"></path>
  </symbol>
  <symbol fill="none" xmlns="http://www.w3.org/2000/svg" viewBox="0 0 70 100" id="number-backgr">
    <path d="M0 0H70V73L0 100V0Z" fill="#0D2B6D"></path>
    <path d="M3 4H67V71.16L3 96V4Z" fill="#0D2B6D"></path>
    <path d="M3.5 4.5H66.5V70.8177L3.5 95.2696V4.5Z" stroke="white" stroke-opacity="0.5"></path>
  </symbol>
  <symbol fill="none" xmlns="http://www.w3.org/2000/svg" viewBox="0 0 18 20" id="play-icon">
    <path d="M17.4635 9.86L0.46347 19.72L0.46347 -7.43094e-07L17.4635 9.86Z" fill="white"></path>
  </symbol>

</svg>